<svg width="347" height="141" viewBox="0 0 354 141" fill="none" xmlns="http://www.w3.org/2000/svg">
<path d="M6.016 101.648H0.896V100.432H6.016V101.648ZM11.2219 95.056V106H9.74988V96.88L7.62188 97.808L7.06188 96.56L10.2779 95.056H11.2219ZM13.2665 100.528C13.2665 98.864 13.6772 97.4933 14.4985 96.416C15.3198 95.3387 16.3758 94.8 17.6665 94.8C18.9572 94.8 20.0132 95.344 20.8345 96.432C21.6558 97.5093 22.0665 98.8747 22.0665 100.528C22.0665 102.171 21.6558 103.541 20.8345 104.64C20.0132 105.717 18.9572 106.256 17.6665 106.256C16.3758 106.256 15.3198 105.717 14.4985 104.64C13.6772 103.541 13.2665 102.171 13.2665 100.528ZM20.5625 100.528C20.5625 99.2693 20.2958 98.2347 19.7625 97.424C19.2398 96.6133 18.5412 96.208 17.6665 96.208C16.7918 96.208 16.0932 96.6133 15.5705 97.424C15.0372 98.2347 14.7705 99.2693 14.7705 100.528C14.7705 101.787 15.0372 102.827 15.5705 103.648C16.0932 104.448 16.7918 104.848 17.6665 104.848C18.5412 104.848 19.2398 104.443 19.7625 103.632C20.2958 102.811 20.5625 101.776 20.5625 100.528ZM27.4536 96.864C27.4536 97.44 27.2456 97.9253 26.8296 98.32C26.4243 98.7253 25.939 98.928 25.3736 98.928C24.8083 98.928 24.3123 98.7253 23.8856 98.32C23.4803 97.9147 23.2776 97.4293 23.2776 96.864C23.2776 96.2987 23.4803 95.8133 23.8856 95.408C24.3123 95.0027 24.8083 94.8 25.3736 94.8C25.9496 94.8 26.4403 95.0027 26.8456 95.408C27.251 95.8133 27.4536 96.2987 27.4536 96.864ZM25.3736 97.904C25.6403 97.904 25.8696 97.8027 26.0616 97.6C26.2643 97.3867 26.3656 97.1413 26.3656 96.864C26.3763 96.5653 26.275 96.32 26.0616 96.128C25.8483 95.9253 25.6083 95.824 25.3416 95.824C25.075 95.824 24.8456 95.9253 24.6536 96.128C24.4616 96.3093 24.3656 96.5387 24.3656 96.816C24.3656 96.9547 24.387 97.0933 24.4296 97.232C24.483 97.36 24.5523 97.4773 24.6376 97.584C24.7336 97.68 24.8403 97.76 24.9576 97.824C25.0856 97.888 25.2243 97.9147 25.3736 97.904Z" fill="black"/>
<path d="M6.704 58.528C6.704 56.864 7.11467 55.4933 7.936 54.416C8.75733 53.3387 9.81333 52.8 11.104 52.8C12.3947 52.8 13.4507 53.344 14.272 54.432C15.0933 55.5093 15.504 56.8747 15.504 58.528C15.504 60.1707 15.0933 61.5413 14.272 62.64C13.4507 63.7173 12.3947 64.256 11.104 64.256C9.81333 64.256 8.75733 63.7173 7.936 62.64C7.11467 61.5413 6.704 60.1707 6.704 58.528ZM14 58.528C14 57.2693 13.7333 56.2347 13.2 55.424C12.6773 54.6133 11.9787 54.208 11.104 54.208C10.2293 54.208 9.53067 54.6133 9.008 55.424C8.47467 56.2347 8.208 57.2693 8.208 58.528C8.208 59.7867 8.47467 60.8267 9.008 61.648C9.53067 62.448 10.2293 62.848 11.104 62.848C11.9787 62.848 12.6773 62.4427 13.2 61.632C13.7333 60.8107 14 59.776 14 58.528ZM20.8911 54.864C20.8911 55.44 20.6831 55.9253 20.2671 56.32C19.8618 56.7253 19.3765 56.928 18.8111 56.928C18.2458 56.928 17.7498 56.7253 17.3231 56.32C16.9178 55.9147 16.7151 55.4293 16.7151 54.864C16.7151 54.2987 16.9178 53.8133 17.3231 53.408C17.7498 53.0027 18.2458 52.8 18.8111 52.8C19.3871 52.8 19.8778 53.0027 20.2831 53.408C20.6885 53.8133 20.8911 54.2987 20.8911 54.864ZM18.8111 55.904C19.0778 55.904 19.3071 55.8027 19.4991 55.6C19.7018 55.3867 19.8031 55.1413 19.8031 54.864C19.8138 54.5653 19.7125 54.32 19.4991 54.128C19.2858 53.9253 19.0458 53.824 18.7791 53.824C18.5125 53.824 18.2831 53.9253 18.0911 54.128C17.8991 54.3093 17.8031 54.5387 17.8031 54.816C17.8031 54.9547 17.8245 55.0933 17.8671 55.232C17.9205 55.36 17.9898 55.4773 18.0751 55.584C18.1711 55.68 18.2778 55.76 18.3951 55.824C18.5231 55.888 18.6618 55.9147 18.8111 55.904Z" fill="black"/>
<path fill-rule="evenodd" clip-rule="evenodd" d="M68.8749 64.8329L45 84.0001V114H347V57.5001C337.786 65.3974 326.903 71.1044 315.168 74.1927L314 74.5001L304.5 72.5001L285.5 62.5001L285.297 62.5388C278.63 63.8087 271.729 62.7805 265.722 59.6221L245.509 48.9947C233.526 42.694 219.293 42.3264 207 48.0001L188 59.5L174 63.5001C164.458 67.6351 153.602 67.5151 144.155 63.1665L139.034 60.8094C131.775 57.4679 123.365 57.7473 116.344 61.5632L115.177 62.1972C108.502 65.825 100.46 65.8959 93.722 62.3865C85.6875 58.2019 75.939 59.1617 68.8749 64.8329Z" fill="url(#paint0_linear_117_143)" fill-opacity="0.2"/>
<path d="M10.8 9.056V20H9.328V10.88L7.2 11.808L6.64 10.56L9.856 9.056H10.8ZM12.8446 14.528C12.8446 12.864 13.2553 11.4933 14.0766 10.416C14.898 9.33867 15.954 8.8 17.2446 8.8C18.5353 8.8 19.5913 9.344 20.4126 10.432C21.234 11.5093 21.6446 12.8747 21.6446 14.528C21.6446 16.1707 21.234 17.5413 20.4126 18.64C19.5913 19.7173 18.5353 20.256 17.2446 20.256C15.954 20.256 14.898 19.7173 14.0766 18.64C13.2553 17.5413 12.8446 16.1707 12.8446 14.528ZM20.1406 14.528C20.1406 13.2693 19.874 12.2347 19.3406 11.424C18.818 10.6133 18.1193 10.208 17.2446 10.208C16.37 10.208 15.6713 10.6133 15.1486 11.424C14.6153 12.2347 14.3486 13.2693 14.3486 14.528C14.3486 15.7867 14.6153 16.8267 15.1486 17.648C15.6713 18.448 16.37 18.848 17.2446 18.848C18.1193 18.848 18.818 18.4427 19.3406 17.632C19.874 16.8107 20.1406 15.776 20.1406 14.528ZM27.0318 10.864C27.0318 11.44 26.8238 11.9253 26.4078 12.32C26.0024 12.7253 25.5171 12.928 24.9518 12.928C24.3864 12.928 23.8904 12.7253 23.4638 12.32C23.0584 11.9147 22.8558 11.4293 22.8558 10.864C22.8558 10.2987 23.0584 9.81333 23.4638 9.408C23.8904 9.00267 24.3864 8.8 24.9518 8.8C25.5278 8.8 26.0184 9.00267 26.4238 9.408C26.8291 9.81333 27.0318 10.2987 27.0318 10.864ZM24.9518 11.904C25.2184 11.904 25.4478 11.8027 25.6398 11.6C25.8424 11.3867 25.9438 11.1413 25.9438 10.864C25.9544 10.5653 25.8531 10.32 25.6398 10.128C25.4264 9.92533 25.1864 9.824 24.9198 9.824C24.6531 9.824 24.4238 9.92533 24.2318 10.128C24.0398 10.3093 23.9438 10.5387 23.9438 10.816C23.9438 10.9547 23.9651 11.0933 24.0078 11.232C24.0611 11.36 24.1304 11.4773 24.2158 11.584C24.3118 11.68 24.4184 11.76 24.5358 11.824C24.6638 11.888 24.8024 11.9147 24.9518 11.904Z" fill="black"/>
<path d="M47.46 137H46.08V126.26H47.46L51.195 132.8H51.255L54.99 126.26H56.37V137H54.99V130.625L55.05 128.825H54.99L51.63 134.72H50.82L47.46 128.825H47.4L47.46 130.625V137ZM58.0212 133.325C58.0212 132.195 58.3762 131.26 59.0862 130.52C59.8062 129.78 60.7112 129.41 61.8012 129.41C62.8912 129.41 63.7912 129.78 64.5012 130.52C65.2212 131.26 65.5812 132.195 65.5812 133.325C65.5812 134.465 65.2212 135.4 64.5012 136.13C63.7912 136.87 62.8912 137.24 61.8012 137.24C60.7112 137.24 59.8062 136.87 59.0862 136.13C58.3762 135.39 58.0212 134.455 58.0212 133.325ZM59.4012 133.325C59.4012 134.115 59.6312 134.755 60.0912 135.245C60.5512 135.735 61.1212 135.98 61.8012 135.98C62.4812 135.98 63.0512 135.735 63.5112 135.245C63.9712 134.755 64.2012 134.115 64.2012 133.325C64.2012 132.545 63.9712 131.91 63.5112 131.42C63.0412 130.92 62.4712 130.67 61.8012 130.67C61.1312 130.67 60.5612 130.92 60.0912 131.42C59.6312 131.91 59.4012 132.545 59.4012 133.325ZM66.8382 129.65H68.1582V130.67H68.2182C68.4282 130.31 68.7482 130.01 69.1782 129.77C69.6182 129.53 70.0732 129.41 70.5432 129.41C71.4432 129.41 72.1332 129.67 72.6132 130.19C73.1032 130.7 73.3482 131.43 73.3482 132.38V137H71.9682V132.47C71.9382 131.27 71.3332 130.67 70.1532 130.67C69.6032 130.67 69.1432 130.895 68.7732 131.345C68.4032 131.785 68.2182 132.315 68.2182 132.935V137H66.8382V129.65Z" fill="black"/>
<path d="M101.74 127.58V137H100.36V127.58H97.36V126.26H104.74V127.58H101.74ZM111.647 137H110.327V135.98H110.267C110.057 136.34 109.732 136.64 109.292 136.88C108.862 137.12 108.412 137.24 107.942 137.24C107.042 137.24 106.347 136.985 105.857 136.475C105.377 135.955 105.137 135.22 105.137 134.27V129.65H106.517V134.18C106.547 135.38 107.152 135.98 108.332 135.98C108.882 135.98 109.342 135.76 109.712 135.32C110.082 134.87 110.267 134.335 110.267 133.715V129.65H111.647V137ZM116.704 137.24C115.624 137.24 114.734 136.87 114.034 136.13C113.334 135.39 112.984 134.455 112.984 133.325C112.984 132.205 113.324 131.275 114.004 130.535C114.684 129.785 115.554 129.41 116.614 129.41C117.704 129.41 118.569 129.765 119.209 130.475C119.859 131.175 120.184 132.16 120.184 133.43L120.169 133.58H114.394C114.414 134.3 114.654 134.88 115.114 135.32C115.574 135.76 116.124 135.98 116.764 135.98C117.644 135.98 118.334 135.54 118.834 134.66L120.064 135.26C119.734 135.88 119.274 136.365 118.684 136.715C118.104 137.065 117.444 137.24 116.704 137.24ZM114.499 132.44H118.714C118.674 131.93 118.464 131.51 118.084 131.18C117.714 130.84 117.214 130.67 116.584 130.67C116.064 130.67 115.614 130.83 115.234 131.15C114.864 131.47 114.619 131.9 114.499 132.44Z" fill="black"/>
<path d="M154.15 126.26H155.59L152.725 137H151.315L149.005 129.92H148.945L146.635 137H145.225L142.24 126.26H143.68L145.945 134.705H146.005L148.33 127.7H149.62L151.945 134.705H152.005L154.15 126.26ZM159.298 137.24C158.218 137.24 157.328 136.87 156.628 136.13C155.928 135.39 155.578 134.455 155.578 133.325C155.578 132.205 155.918 131.275 156.598 130.535C157.278 129.785 158.148 129.41 159.208 129.41C160.298 129.41 161.163 129.765 161.803 130.475C162.453 131.175 162.778 132.16 162.778 133.43L162.763 133.58H156.988C157.008 134.3 157.248 134.88 157.708 135.32C158.168 135.76 158.718 135.98 159.358 135.98C160.238 135.98 160.928 135.54 161.428 134.66L162.658 135.26C162.328 135.88 161.868 136.365 161.278 136.715C160.698 137.065 160.038 137.24 159.298 137.24ZM157.093 132.44H161.308C161.268 131.93 161.058 131.51 160.678 131.18C160.308 130.84 159.808 130.67 159.178 130.67C158.658 130.67 158.208 130.83 157.828 131.15C157.458 131.47 157.213 131.9 157.093 132.44ZM164.19 129.65H165.51V130.67H165.57C165.78 130.31 166.1 130.01 166.53 129.77C166.97 129.53 167.425 129.41 167.895 129.41C168.795 129.41 169.485 129.67 169.965 130.19C170.455 130.7 170.7 131.43 170.7 132.38V137H169.32V132.47C169.29 131.27 168.685 130.67 167.505 130.67C166.955 130.67 166.495 130.895 166.125 131.345C165.755 131.785 165.57 132.315 165.57 132.935V137H164.19V129.65Z" fill="black"/>
<path d="M197.74 127.58V137H196.36V127.58H193.36V126.26H200.74V127.58H197.74ZM202.091 126.26H203.471V129.65L203.411 130.67H203.471C203.681 130.31 204.001 130.01 204.431 129.77C204.871 129.53 205.326 129.41 205.796 129.41C206.696 129.41 207.386 129.67 207.866 130.19C208.356 130.7 208.601 131.43 208.601 132.38V137H207.221V132.65C207.221 131.33 206.636 130.67 205.466 130.67C204.906 130.67 204.431 130.905 204.041 131.375C203.661 131.835 203.471 132.375 203.471 132.995V137H202.091V126.26ZM216.82 137H215.5V135.98H215.44C215.23 136.34 214.905 136.64 214.465 136.88C214.035 137.12 213.585 137.24 213.115 137.24C212.215 137.24 211.52 136.985 211.03 136.475C210.55 135.955 210.31 135.22 210.31 134.27V129.65H211.69V134.18C211.72 135.38 212.325 135.98 213.505 135.98C214.055 135.98 214.515 135.76 214.885 135.32C215.255 134.87 215.44 134.335 215.44 133.715V129.65H216.82V137Z" fill="black"/>
<path d="M241.46 132.395V137H240.08V126.26H246.35V127.58H241.46V131.105H245.87V132.395H241.46ZM248.914 137H247.534V129.65H248.854V130.85H248.914C249.054 130.46 249.339 130.13 249.769 129.86C250.209 129.58 250.639 129.44 251.059 129.44C251.459 129.44 251.799 129.5 252.079 129.62L251.659 130.955C251.489 130.885 251.219 130.85 250.849 130.85C250.329 130.85 249.874 131.06 249.484 131.48C249.104 131.9 248.914 132.39 248.914 132.95V137ZM254.918 127.115C254.918 127.385 254.823 127.615 254.633 127.805C254.443 127.995 254.213 128.09 253.943 128.09C253.673 128.09 253.443 127.995 253.253 127.805C253.063 127.615 252.968 127.385 252.968 127.115C252.968 126.845 253.063 126.615 253.253 126.425C253.443 126.235 253.673 126.14 253.943 126.14C254.213 126.14 254.443 126.235 254.633 126.425C254.823 126.615 254.918 126.845 254.918 127.115ZM254.633 129.65V137H253.253V129.65H254.633Z" fill="black"/>
<path d="M283.71 134.135C283.71 135.075 283.365 135.83 282.675 136.4C281.975 136.96 281.125 137.24 280.125 137.24C279.235 137.24 278.45 136.98 277.77 136.46C277.09 135.94 276.62 135.23 276.36 134.33L277.68 133.79C277.77 134.11 277.895 134.4 278.055 134.66C278.215 134.92 278.4 135.145 278.61 135.335C278.83 135.515 279.07 135.66 279.33 135.77C279.59 135.87 279.865 135.92 280.155 135.92C280.785 135.92 281.3 135.76 281.7 135.44C282.1 135.11 282.3 134.675 282.3 134.135C282.3 133.685 282.135 133.3 281.805 132.98C281.495 132.67 280.915 132.37 280.065 132.08C279.205 131.77 278.67 131.56 278.46 131.45C277.32 130.87 276.75 130.015 276.75 128.885C276.75 128.095 277.065 127.42 277.695 126.86C278.335 126.3 279.12 126.02 280.05 126.02C280.87 126.02 281.58 126.23 282.18 126.65C282.78 127.06 283.18 127.575 283.38 128.195L282.09 128.735C281.97 128.335 281.73 128.005 281.37 127.745C281.02 127.475 280.59 127.34 280.08 127.34C279.54 127.34 279.085 127.49 278.715 127.79C278.345 128.07 278.16 128.435 278.16 128.885C278.16 129.255 278.305 129.575 278.595 129.845C278.915 130.115 279.61 130.435 280.68 130.805C281.77 131.175 282.545 131.63 283.005 132.17C283.475 132.7 283.71 133.355 283.71 134.135ZM286.286 134.75C286.286 135.11 286.436 135.41 286.736 135.65C287.046 135.89 287.406 136.01 287.816 136.01C288.396 136.01 288.911 135.795 289.361 135.365C289.821 134.935 290.051 134.43 290.051 133.85C289.621 133.51 289.021 133.34 288.251 133.34C287.691 133.34 287.221 133.475 286.841 133.745C286.471 134.015 286.286 134.35 286.286 134.75ZM288.071 129.41C289.091 129.41 289.896 129.685 290.486 130.235C291.076 130.775 291.371 131.52 291.371 132.47V137H290.051V135.98H289.991C289.421 136.82 288.661 137.24 287.711 137.24C286.901 137.24 286.221 137 285.671 136.52C285.131 136.04 284.861 135.44 284.861 134.72C284.861 133.96 285.146 133.355 285.716 132.905C286.296 132.455 287.066 132.23 288.026 132.23C288.846 132.23 289.521 132.38 290.051 132.68V132.365C290.051 131.885 289.861 131.48 289.481 131.15C289.101 130.81 288.656 130.64 288.146 130.64C287.376 130.64 286.766 130.965 286.316 131.615L285.101 130.85C285.771 129.89 286.761 129.41 288.071 129.41ZM295.841 137.12C295.241 137.12 294.741 136.935 294.341 136.565C293.951 136.195 293.751 135.68 293.741 135.02V130.91H292.451V129.65H293.741V127.4H295.121V129.65H296.921V130.91H295.121V134.57C295.121 135.06 295.216 135.395 295.406 135.575C295.596 135.745 295.811 135.83 296.051 135.83C296.161 135.83 296.266 135.82 296.366 135.8C296.476 135.77 296.576 135.735 296.666 135.695L297.101 136.925C296.741 137.055 296.321 137.12 295.841 137.12Z" fill="black"/>
<path d="M326.71 134.135C326.71 135.075 326.365 135.83 325.675 136.4C324.975 136.96 324.125 137.24 323.125 137.24C322.235 137.24 321.45 136.98 320.77 136.46C320.09 135.94 319.62 135.23 319.36 134.33L320.68 133.79C320.77 134.11 320.895 134.4 321.055 134.66C321.215 134.92 321.4 135.145 321.61 135.335C321.83 135.515 322.07 135.66 322.33 135.77C322.59 135.87 322.865 135.92 323.155 135.92C323.785 135.92 324.3 135.76 324.7 135.44C325.1 135.11 325.3 134.675 325.3 134.135C325.3 133.685 325.135 133.3 324.805 132.98C324.495 132.67 323.915 132.37 323.065 132.08C322.205 131.77 321.67 131.56 321.46 131.45C320.32 130.87 319.75 130.015 319.75 128.885C319.75 128.095 320.065 127.42 320.695 126.86C321.335 126.3 322.12 126.02 323.05 126.02C323.87 126.02 324.58 126.23 325.18 126.65C325.78 127.06 326.18 127.575 326.38 128.195L325.09 128.735C324.97 128.335 324.73 128.005 324.37 127.745C324.02 127.475 323.59 127.34 323.08 127.34C322.54 127.34 322.085 127.49 321.715 127.79C321.345 128.07 321.16 128.435 321.16 128.885C321.16 129.255 321.305 129.575 321.595 129.845C321.915 130.115 322.61 130.435 323.68 130.805C324.77 131.175 325.545 131.63 326.005 132.17C326.475 132.7 326.71 133.355 326.71 134.135ZM334.511 137H333.191V135.98H333.131C332.921 136.34 332.596 136.64 332.156 136.88C331.726 137.12 331.276 137.24 330.806 137.24C329.906 137.24 329.211 136.985 328.721 136.475C328.241 135.955 328.001 135.22 328.001 134.27V129.65H329.381V134.18C329.411 135.38 330.016 135.98 331.196 135.98C331.746 135.98 332.206 135.76 332.576 135.32C332.946 134.87 333.131 134.335 333.131 133.715V129.65H334.511V137ZM336.341 129.65H337.661V130.67H337.721C337.931 130.31 338.251 130.01 338.681 129.77C339.121 129.53 339.576 129.41 340.046 129.41C340.946 129.41 341.636 129.67 342.116 130.19C342.606 130.7 342.851 131.43 342.851 132.38V137H341.471V132.47C341.441 131.27 340.836 130.67 339.656 130.67C339.106 130.67 338.646 130.895 338.276 131.345C337.906 131.785 337.721 132.315 337.721 132.935V137H336.341V129.65Z" fill="black"/>
<line x1="45" y1="15" x2="347" y2="15" stroke="black" stroke-opacity="0.13" stroke-width="2"/>
<line x1="45" y1="57" x2="347" y2="57" stroke="black" stroke-opacity="0.13" stroke-width="2"/>
<line x1="45" y1="99" x2="347" y2="99" stroke="black" stroke-opacity="0.13" stroke-width="2"/>
<g filter="url(#filter0_ddddd_117_143)">
<path d="M45 85L70.824 65.0361C77.4914 59.8817 86.6053 59.2456 93.9241 63.4239V63.4239C100.368 67.103 108.282 67.0815 114.706 63.3674L115.957 62.6447C122.589 58.8101 130.68 58.4696 137.612 61.7332L143.558 64.5333C150.185 67.6536 157.703 68.3265 164.779 66.4327L182.227 61.7629C184.837 61.0644 187.344 60.0277 189.685 58.6793L204.01 50.4281C205.997 49.2833 208.105 48.3626 210.296 47.6829L216.865 45.6447C223.434 43.6063 230.496 43.8108 236.936 46.2261L248.89 50.7086C250.295 51.2355 251.66 51.8637 252.974 52.5883L263.401 58.3378C266.252 59.9099 269.333 61.023 272.53 61.6363L286.162 64.251C290.292 65.0431 294.169 66.8229 297.462 69.4385V69.4385C306.227 76.4008 318.459 76.9877 327.851 70.8965L347 58.4772" stroke="black" stroke-width="2"/>
</g>
<line x1="224" y1="118" x2="224" y2="43" stroke="#21005D" stroke-width="2" stroke-dasharray="6 6"/>
<circle cx="224.5" cy="43.5" r="5.5" fill="#21005D" stroke="white" stroke-width="2"/>
<path d="M201 16C201 9.92487 205.925 5 212 5H236C242.075 5 247 9.92487 247 16C247 22.0751 242.075 27 236 27H229.135C228.088 27 227.084 27.4158 226.344 28.1559C225.049 29.4505 222.951 29.4505 221.656 28.1559C220.916 27.4158 219.912 27 218.865 27H212C205.925 27 201 22.0751 201 16Z" fill="white"/>
<path d="M225.874 18.284C225.874 19.124 225.561 19.824 224.936 20.384C224.32 20.944 223.555 21.224 222.64 21.224C221.921 21.224 221.273 21.0093 220.694 20.58C220.106 20.132 219.709 19.5487 219.504 18.83L220.68 18.34C220.829 18.872 221.072 19.2827 221.408 19.572C221.753 19.852 222.164 19.992 222.64 19.992C223.163 19.992 223.615 19.8287 223.998 19.502C224.371 19.166 224.558 18.76 224.558 18.284C224.558 17.808 224.362 17.4067 223.97 17.08C223.587 16.7533 223.125 16.59 222.584 16.59H221.758V15.386H222.486C222.999 15.386 223.419 15.246 223.746 14.966C224.073 14.6767 224.236 14.3033 224.236 13.846C224.236 13.426 224.082 13.0853 223.774 12.824C223.466 12.5627 223.06 12.432 222.556 12.432C221.744 12.432 221.189 12.8473 220.89 13.678L219.7 13.174C219.915 12.586 220.274 12.11 220.778 11.746C221.282 11.382 221.875 11.2 222.556 11.2C223.405 11.2 224.119 11.452 224.698 11.956C225.267 12.4413 225.552 13.0713 225.552 13.846C225.552 14.77 225.123 15.456 224.264 15.904V15.96C224.768 16.1747 225.16 16.4873 225.44 16.898C225.729 17.3087 225.874 17.7707 225.874 18.284ZM230.54 13.006C230.54 13.51 230.358 13.9347 229.994 14.28C229.639 14.6347 229.214 14.812 228.72 14.812C228.225 14.812 227.791 14.6347 227.418 14.28C227.063 13.9253 226.886 13.5007 226.886 13.006C226.886 12.5113 227.063 12.0867 227.418 11.732C227.791 11.3773 228.225 11.2 228.72 11.2C229.224 11.2 229.653 11.3773 230.008 11.732C230.362 12.0867 230.54 12.5113 230.54 13.006ZM228.72 13.916C228.953 13.916 229.154 13.8273 229.322 13.65C229.499 13.4633 229.588 13.2487 229.588 13.006C229.597 12.7447 229.508 12.53 229.322 12.362C229.135 12.1847 228.925 12.096 228.692 12.096C228.458 12.096 228.258 12.1847 228.09 12.362C227.922 12.5207 227.838 12.7213 227.838 12.964C227.838 13.0853 227.856 13.2067 227.894 13.328C227.94 13.44 228.001 13.5427 228.076 13.636C228.16 13.72 228.253 13.79 228.356 13.846C228.468 13.902 228.589 13.9253 228.72 13.916Z" fill="black"/>
<defs>
<filter id="filter0_ddddd_117_143" x="38.3884" y="42.2523" width="315.156" height="64.5389" filterUnits="userSpaceOnUse" color-interpolation-filters="sRGB">
<feFlood flood-opacity="0" result="BackgroundImageFix"/>
<feColorMatrix in="SourceAlpha" type="matrix" values="0 0 0 0 0 0 0 0 0 0 0 0 0 0 0 0 0 0 127 0" result="hardAlpha"/>
<feOffset/>
<feColorMatrix type="matrix" values="0 0 0 0 0.0588235 0 0 0 0 0 0 0 0 0 0.2 0 0 0 0.1 0"/>
<feBlend mode="normal" in2="BackgroundImageFix" result="effect1_dropShadow_117_143"/>
<feColorMatrix in="SourceAlpha" type="matrix" values="0 0 0 0 0 0 0 0 0 0 0 0 0 0 0 0 0 0 127 0" result="hardAlpha"/>
<feOffset dy="1"/>
<feGaussianBlur stdDeviation="1"/>
<feColorMatrix type="matrix" values="0 0 0 0 0.0588235 0 0 0 0 0 0 0 0 0 0.2 0 0 0 0.1 0"/>
<feBlend mode="normal" in2="effect1_dropShadow_117_143" result="effect2_dropShadow_117_143"/>
<feColorMatrix in="SourceAlpha" type="matrix" values="0 0 0 0 0 0 0 0 0 0 0 0 0 0 0 0 0 0 127 0" result="hardAlpha"/>
<feOffset dy="4"/>
<feGaussianBlur stdDeviation="2"/>
<feColorMatrix type="matrix" values="0 0 0 0 0.0588235 0 0 0 0 0 0 0 0 0 0.2 0 0 0 0.09 0"/>
<feBlend mode="normal" in2="effect2_dropShadow_117_143" result="effect3_dropShadow_117_143"/>
<feColorMatrix in="SourceAlpha" type="matrix" values="0 0 0 0 0 0 0 0 0 0 0 0 0 0 0 0 0 0 127 0" result="hardAlpha"/>
<feOffset dy="8"/>
<feGaussianBlur stdDeviation="2.5"/>
<feColorMatrix type="matrix" values="0 0 0 0 0.0588235 0 0 0 0 0 0 0 0 0 0.2 0 0 0 0.05 0"/>
<feBlend mode="normal" in2="effect3_dropShadow_117_143" result="effect4_dropShadow_117_143"/>
<feColorMatrix in="SourceAlpha" type="matrix" values="0 0 0 0 0 0 0 0 0 0 0 0 0 0 0 0 0 0 127 0" result="hardAlpha"/>
<feOffset dy="15"/>
<feGaussianBlur stdDeviation="3"/>
<feColorMatrix type="matrix" values="0 0 0 0 0.0588235 0 0 0 0 0 0 0 0 0 0.2 0 0 0 0.01 0"/>
<feBlend mode="normal" in2="effect4_dropShadow_117_143" result="effect5_dropShadow_117_143"/>
<feBlend mode="normal" in="SourceGraphic" in2="effect5_dropShadow_117_143" result="shape"/>
</filter>
<linearGradient id="paint0_linear_117_143" x1="196" y1="46.9492" x2="196" y2="114" gradientUnits="userSpaceOnUse">
<stop stop-color="#2B00A5"/>
<stop offset="1" stop-color="#120045" stop-opacity="0"/>
</linearGradient>
</defs>
</svg>
