<svg width="32" height="24" viewBox="0 0 32 24" fill="none" xmlns="http://www.w3.org/2000/svg">
<path d="M20 24C26.6274 24 32 18.6274 32 12C32 5.37258 26.6274 0 20 0C13.3726 0 8 5.37258 8 12C8 18.6274 13.3726 24 20 24Z" fill="#F1F3F4"/>
<path d="M20 24C26.6274 24 32 18.6274 32 12C32 5.37258 26.6274 0 20 0C13.3726 0 8 5.37258 8 12C8 18.6274 13.3726 24 20 24Z" fill="url(#paint0_linear_114_6)"/>
<path fill-rule="evenodd" clip-rule="evenodd" d="M20 24C20 18.477 15.523 14 10 14C4.477 14 0 18.477 0 24C0.015 23.977 20.005 23.985 20 24Z" fill="#D9D9D9"/>
<defs>
<linearGradient id="paint0_linear_114_6" x1="8.81336" y1="0.81336" x2="32" y2="24" gradientUnits="userSpaceOnUse">
<stop stop-color="#DBDBDB"/>
<stop offset="1" stop-color="#BFBFBF"/>
</linearGradient>
</defs>
</svg>
