<svg width="28" height="28" viewBox="0 0 28 28" fill="none" xmlns="http://www.w3.org/2000/svg">
<circle cx="14" cy="14" r="14" fill="#FFFBFF"/>
<mask id="mask0_110_144" style="mask-type:alpha" maskUnits="userSpaceOnUse" x="6" y="6" width="16" height="16">
<rect x="6" y="6" width="16" height="16" fill="#D9D9D9"/>
</mask>
<g mask="url(#mask0_110_144)">
<path d="M7.33333 19.5667V18.2667C7.65555 18.2667 7.93044 18.2167 8.15799 18.1167C8.38599 18.0167 8.61666 17.9085 8.84999 17.792C9.08333 17.6751 9.34177 17.5694 9.62533 17.4747C9.90844 17.3805 10.2556 17.3334 10.6667 17.3334C11.0889 17.3334 11.436 17.3805 11.708 17.4747C11.9804 17.5694 12.2333 17.6751 12.4667 17.792C12.7 17.9085 12.9333 18.0167 13.1667 18.1167C13.4 18.2167 13.6778 18.2667 14 18.2667C14.3222 18.2667 14.6 18.2167 14.8333 18.1167C15.0667 18.0167 15.3 17.9085 15.5333 17.792C15.7667 17.6751 16.0222 17.5694 16.3 17.4747C16.5778 17.3805 16.9222 17.3334 17.3333 17.3334C17.7555 17.3334 18.1056 17.3805 18.3833 17.4747C18.6611 17.5694 18.9167 17.6751 19.15 17.792C19.3833 17.9085 19.6167 18.0167 19.85 18.1167C20.0833 18.2167 20.3555 18.2667 20.6667 18.2667V19.5667C20.2444 19.5667 19.8918 19.5167 19.6087 19.4167C19.3251 19.3167 19.0667 19.2082 18.8333 19.0913C18.6 18.9749 18.3722 18.8696 18.15 18.7754C17.9278 18.6807 17.6556 18.6334 17.3333 18.6334C17.0222 18.6334 16.7529 18.6807 16.5253 18.7754C16.2973 18.8696 16.0693 18.9749 15.8413 19.0913C15.6138 19.2082 15.3584 19.3167 15.0753 19.4167C14.7918 19.5167 14.4333 19.5667 14 19.5667C13.5667 19.5667 13.2082 19.5167 12.9247 19.4167C12.6416 19.3167 12.3862 19.2082 12.1587 19.0913C11.9307 18.9749 11.7056 18.8696 11.4833 18.7754C11.2611 18.6807 10.9889 18.6334 10.6667 18.6334C10.3556 18.6334 10.0862 18.6807 9.85866 18.7754C9.63066 18.8696 9.39999 18.9749 9.16666 19.0913C8.93333 19.2082 8.67511 19.3167 8.39199 19.4167C8.10844 19.5167 7.75555 19.5667 7.33333 19.5667ZM7.33333 16.6V15.3C7.65555 15.3 7.93044 15.25 8.15799 15.15C8.38599 15.05 8.61666 14.9418 8.84999 14.8253C9.08333 14.7085 9.34177 14.6027 9.62533 14.508C9.90844 14.4138 10.2556 14.3667 10.6667 14.3667C11.0889 14.3667 11.436 14.4138 11.708 14.508C11.9804 14.6027 12.2333 14.7085 12.4667 14.8253C12.7 14.9418 12.9333 15.05 13.1667 15.15C13.4 15.25 13.6778 15.3 14 15.3C14.3222 15.3 14.6 15.25 14.8333 15.15C15.0667 15.05 15.3 14.9418 15.5333 14.8253C15.7667 14.7085 16.0222 14.6027 16.3 14.508C16.5778 14.4138 16.9222 14.3667 17.3333 14.3667C17.7555 14.3667 18.1056 14.4138 18.3833 14.508C18.6611 14.6027 18.9167 14.7085 19.15 14.8253C19.3833 14.9418 19.6167 15.05 19.85 15.15C20.0833 15.25 20.3555 15.3 20.6667 15.3V16.6C20.2444 16.6 19.8918 16.55 19.6087 16.45C19.3251 16.35 19.0667 16.2418 18.8333 16.1253C18.6 16.0085 18.3722 15.9027 18.15 15.808C17.9278 15.7138 17.6556 15.6667 17.3333 15.6667C17.0111 15.6667 16.7362 15.7138 16.5087 15.808C16.2807 15.9027 16.0529 16.0085 15.8253 16.1253C15.5973 16.2418 15.3444 16.35 15.0667 16.45C14.7889 16.55 14.4333 16.6 14 16.6C13.5667 16.6 13.2082 16.55 12.9247 16.45C12.6416 16.35 12.3862 16.2418 12.1587 16.1253C11.9307 16.0085 11.7056 15.9027 11.4833 15.808C11.2611 15.7138 10.9889 15.6667 10.6667 15.6667C10.3556 15.6667 10.0862 15.7138 9.85866 15.808C9.63066 15.9027 9.39999 16.0085 9.16666 16.1253C8.93333 16.2418 8.67511 16.35 8.39199 16.45C8.10844 16.55 7.75555 16.6 7.33333 16.6ZM7.33333 13.6333V12.3333C7.65555 12.3333 7.93044 12.2833 8.15799 12.1833C8.38599 12.0833 8.61666 11.9749 8.84999 11.858C9.08333 11.7416 9.34177 11.636 9.62533 11.5413C9.90844 11.4471 10.2556 11.4 10.6667 11.4C11.0889 11.4 11.436 11.4471 11.708 11.5413C11.9804 11.636 12.2333 11.7416 12.4667 11.858C12.7 11.9749 12.9333 12.0833 13.1667 12.1833C13.4 12.2833 13.6778 12.3333 14 12.3333C14.3222 12.3333 14.6 12.2833 14.8333 12.1833C15.0667 12.0833 15.3 11.9749 15.5333 11.858C15.7667 11.7416 16.0222 11.636 16.3 11.5413C16.5778 11.4471 16.9222 11.4 17.3333 11.4C17.7555 11.4 18.1056 11.4471 18.3833 11.5413C18.6611 11.636 18.9167 11.7416 19.15 11.858C19.3833 11.9749 19.6167 12.0833 19.85 12.1833C20.0833 12.2833 20.3555 12.3333 20.6667 12.3333V13.6333C20.2444 13.6333 19.8918 13.5834 19.6087 13.4833C19.3251 13.3833 19.0667 13.2751 18.8333 13.1587C18.6 13.0418 18.3722 12.936 18.15 12.8413C17.9278 12.7471 17.6556 12.7 17.3333 12.7C17.0222 12.7 16.7529 12.7471 16.5253 12.8413C16.2973 12.936 16.0693 13.0418 15.8413 13.1587C15.6138 13.2751 15.3584 13.3833 15.0753 13.4833C14.7918 13.5834 14.4333 13.6333 14 13.6333C13.5667 13.6333 13.2082 13.5834 12.9247 13.4833C12.6416 13.3833 12.3862 13.2751 12.1587 13.1587C11.9307 13.0418 11.7056 12.936 11.4833 12.8413C11.2611 12.7471 10.9889 12.7 10.6667 12.7C10.3556 12.7 10.0862 12.7471 9.85866 12.8413C9.63066 12.936 9.39999 13.0418 9.16666 13.1587C8.93333 13.2751 8.67511 13.3833 8.39199 13.4833C8.10844 13.5834 7.75555 13.6333 7.33333 13.6333ZM7.33333 10.6667V9.36668C7.65555 9.36668 7.93044 9.31668 8.15799 9.21668C8.38599 9.11668 8.61666 9.00824 8.84999 8.89135C9.08333 8.77491 9.34177 8.66935 9.62533 8.57468C9.90844 8.48046 10.2556 8.43335 10.6667 8.43335C11.0889 8.43335 11.436 8.48046 11.708 8.57468C11.9804 8.66935 12.2333 8.77491 12.4667 8.89135C12.7 9.00824 12.9333 9.11668 13.1667 9.21668C13.4 9.31668 13.6778 9.36668 14 9.36668C14.3222 9.36668 14.6 9.31668 14.8333 9.21668C15.0667 9.11668 15.3 9.00824 15.5333 8.89135C15.7667 8.77491 16.0222 8.66935 16.3 8.57468C16.5778 8.48046 16.9222 8.43335 17.3333 8.43335C17.7555 8.43335 18.1056 8.48046 18.3833 8.57468C18.6611 8.66935 18.9167 8.77491 19.15 8.89135C19.3833 9.00824 19.6167 9.11668 19.85 9.21668C20.0833 9.31668 20.3555 9.36668 20.6667 9.36668V10.6667C20.2444 10.6667 19.8918 10.6167 19.6087 10.5167C19.3251 10.4167 19.0667 10.3082 18.8333 10.1913C18.6 10.0749 18.3722 9.96935 18.15 9.87468C17.9278 9.78046 17.6556 9.73335 17.3333 9.73335C17.0222 9.73335 16.7529 9.78046 16.5253 9.87468C16.2973 9.96935 16.0693 10.0749 15.8413 10.1913C15.6138 10.3082 15.3584 10.4167 15.0753 10.5167C14.7918 10.6167 14.4333 10.6667 14 10.6667C13.5667 10.6667 13.2082 10.6167 12.9247 10.5167C12.6416 10.4167 12.3862 10.3082 12.1587 10.1913C11.9307 10.0749 11.7056 9.96935 11.4833 9.87468C11.2611 9.78046 10.9889 9.73335 10.6667 9.73335C10.3556 9.73335 10.0862 9.78046 9.85866 9.87468C9.63066 9.96935 9.39999 10.0749 9.16666 10.1913C8.93333 10.3082 8.67511 10.4167 8.39199 10.5167C8.10844 10.6167 7.75555 10.6667 7.33333 10.6667Z" fill="#1C1B1F"/>
</g>
</svg>
