<svg width="28" height="28" viewBox="0 0 28 28" fill="none" xmlns="http://www.w3.org/2000/svg">
<circle cx="14" cy="14" r="14" fill="#FFFBFF"/>
<mask id="mask0_110_143" style="mask-type:alpha" maskUnits="userSpaceOnUse" x="6" y="6" width="16" height="16">
<rect x="6" y="6" width="16" height="16" fill="#D9D9D9"/>
</mask>
<g mask="url(#mask0_110_143)">
<path d="M15.3 20.6C15.1333 20.6889 14.964 20.7027 14.792 20.6413C14.6196 20.5804 14.4889 20.4667 14.4 20.3L13.4 18.3C13.3111 18.1333 13.2973 17.964 13.3587 17.792C13.4196 17.6196 13.5333 17.4889 13.7 17.4C13.8667 17.3111 14.036 17.2973 14.208 17.3587C14.3805 17.4196 14.5111 17.5333 14.6 17.7L15.6 19.7C15.6889 19.8667 15.7029 20.036 15.642 20.208C15.5807 20.3804 15.4667 20.5111 15.3 20.6ZM19.3 20.6C19.1333 20.6889 18.964 20.7027 18.792 20.6413C18.6196 20.5804 18.4889 20.4667 18.4 20.3L17.4 18.3C17.3111 18.1333 17.2973 17.964 17.3587 17.792C17.4196 17.6196 17.5333 17.4889 17.7 17.4C17.8667 17.3111 18.036 17.2973 18.208 17.3587C18.3805 17.4196 18.5111 17.5333 18.6 17.7L19.6 19.7C19.6889 19.8667 19.7029 20.036 19.642 20.208C19.5807 20.3804 19.4667 20.5111 19.3 20.6ZM11.3 20.6C11.1333 20.6889 10.964 20.7027 10.792 20.6413C10.6196 20.5804 10.4889 20.4667 10.4 20.3L9.40001 18.3C9.31112 18.1333 9.29734 17.964 9.35868 17.792C9.41957 17.6196 9.53334 17.4889 9.70001 17.4C9.86668 17.3111 10.036 17.2973 10.208 17.3587C10.3805 17.4196 10.5111 17.5333 10.6 17.7L11.6 19.7C11.6889 19.8667 11.7029 20.036 11.642 20.208C11.5807 20.3804 11.4667 20.5111 11.3 20.6ZM11 16.6667C9.9889 16.6667 9.12512 16.3082 8.40868 15.5913C7.69179 14.8749 7.33334 14.0111 7.33334 13C7.33334 12.0778 7.6389 11.2722 8.25001 10.5833C8.86112 9.89444 9.61668 9.48888 10.5167 9.36666C10.8722 8.73333 11.3585 8.23599 11.9753 7.87466C12.5918 7.51377 13.2667 7.33333 14 7.33333C15 7.33333 15.8693 7.65288 16.608 8.29199C17.3471 8.93066 17.7945 9.72777 17.95 10.6833C18.7167 10.75 19.3611 11.0667 19.8833 11.6333C20.4056 12.2 20.6667 12.8778 20.6667 13.6667C20.6667 14.5 20.3751 15.2084 19.792 15.792C19.2085 16.3751 18.5 16.6667 17.6667 16.6667H11ZM11 15.3333H17.6667C18.1333 15.3333 18.5278 15.1722 18.85 14.85C19.1722 14.5278 19.3333 14.1333 19.3333 13.6667C19.3333 13.2 19.1722 12.8056 18.85 12.4833C18.5278 12.1611 18.1333 12 17.6667 12H16.6667V11.3333C16.6667 10.6 16.4056 9.97222 15.8833 9.45C15.3611 8.92777 14.7333 8.66666 14 8.66666C13.4667 8.66666 12.9805 8.81111 12.5413 9.1C12.1027 9.38888 11.7722 9.77777 11.55 10.2667L11.3833 10.6667H10.9667C10.3333 10.6889 9.79179 10.9249 9.34201 11.3747C8.89179 11.8249 8.66668 12.3667 8.66668 13C8.66668 13.6444 8.89445 14.1944 9.35001 14.65C9.80557 15.1056 10.3556 15.3333 11 15.3333Z" fill="#1C1B1F"/>
</g>
</svg>
