<svg width="28" height="28" viewBox="0 0 28 28" fill="none" xmlns="http://www.w3.org/2000/svg">
<circle cx="14" cy="14" r="14" fill="#FFFBFF"/>
<mask id="mask0_110_145" style="mask-type:alpha" maskUnits="userSpaceOnUse" x="6" y="6" width="16" height="16">
<rect x="6" y="6" width="16" height="16" fill="#D9D9D9"/>
</mask>
<g mask="url(#mask0_110_145)">
<path d="M14 16C14.5555 16 15.0278 15.8056 15.4167 15.4167C15.8055 15.0278 16 14.5556 16 14C16 13.4444 15.8055 12.9722 15.4167 12.5833C15.0278 12.1944 14.5555 12 14 12C13.4444 12 12.9722 12.1944 12.5833 12.5833C12.1944 12.9722 12 13.4444 12 14C12 14.5556 12.1944 15.0278 12.5833 15.4167C12.9722 15.8056 13.4444 16 14 16ZM14 17.3333C13.0778 17.3333 12.2918 17.0082 11.642 16.358C10.9918 15.7082 10.6667 14.9222 10.6667 14C10.6667 13.0778 10.9918 12.2916 11.642 11.6413C12.2918 10.9916 13.0778 10.6667 14 10.6667C14.9222 10.6667 15.7084 10.9916 16.3587 11.6413C17.0084 12.2916 17.3333 13.0778 17.3333 14C17.3333 14.9222 17.0084 15.7082 16.3587 16.358C15.7084 17.0082 14.9222 17.3333 14 17.3333ZM7.33332 14.6667C7.14443 14.6667 6.98621 14.6027 6.85866 14.4747C6.73066 14.3471 6.66666 14.1889 6.66666 14C6.66666 13.8111 6.73066 13.6527 6.85866 13.5247C6.98621 13.3971 7.14443 13.3333 7.33332 13.3333H8.66666C8.85555 13.3333 9.01399 13.3971 9.14199 13.5247C9.26955 13.6527 9.33332 13.8111 9.33332 14C9.33332 14.1889 9.26955 14.3471 9.14199 14.4747C9.01399 14.6027 8.85555 14.6667 8.66666 14.6667H7.33332ZM19.3333 14.6667C19.1444 14.6667 18.9862 14.6027 18.8587 14.4747C18.7307 14.3471 18.6667 14.1889 18.6667 14C18.6667 13.8111 18.7307 13.6527 18.8587 13.5247C18.9862 13.3971 19.1444 13.3333 19.3333 13.3333H20.6667C20.8555 13.3333 21.0138 13.3971 21.1413 13.5247C21.2693 13.6527 21.3333 13.8111 21.3333 14C21.3333 14.1889 21.2693 14.3471 21.1413 14.4747C21.0138 14.6027 20.8555 14.6667 20.6667 14.6667H19.3333ZM14 9.33334C13.8111 9.33334 13.6529 9.26934 13.5253 9.14134C13.3973 9.01378 13.3333 8.85556 13.3333 8.66667V7.33334C13.3333 7.14445 13.3973 6.98601 13.5253 6.85801C13.6529 6.73045 13.8111 6.66667 14 6.66667C14.1889 6.66667 14.3473 6.73045 14.4753 6.85801C14.6029 6.98601 14.6667 7.14445 14.6667 7.33334V8.66667C14.6667 8.85556 14.6029 9.01378 14.4753 9.14134C14.3473 9.26934 14.1889 9.33334 14 9.33334ZM14 21.3333C13.8111 21.3333 13.6529 21.2693 13.5253 21.1413C13.3973 21.0138 13.3333 20.8556 13.3333 20.6667V19.3333C13.3333 19.1445 13.3973 18.9862 13.5253 18.8587C13.6529 18.7307 13.8111 18.6667 14 18.6667C14.1889 18.6667 14.3473 18.7307 14.4753 18.8587C14.6029 18.9862 14.6667 19.1445 14.6667 19.3333V20.6667C14.6667 20.8556 14.6029 21.0138 14.4753 21.1413C14.3473 21.2693 14.1889 21.3333 14 21.3333ZM9.76666 10.7L9.04999 10C8.91666 9.87778 8.85266 9.72223 8.85799 9.53334C8.86377 9.34445 8.92777 9.18334 9.04999 9.05C9.18332 8.91667 9.34443 8.85001 9.53332 8.85001C9.72221 8.85001 9.87777 8.91667 9.99999 9.05L10.7 9.76667C10.8222 9.90001 10.8833 10.0556 10.8833 10.2333C10.8833 10.4111 10.8222 10.5667 10.7 10.7C10.5778 10.8333 10.4251 10.8971 10.242 10.8913C10.0584 10.886 9.89999 10.8222 9.76666 10.7ZM18 18.95L17.3 18.2333C17.1778 18.1 17.1167 17.9418 17.1167 17.7587C17.1167 17.5751 17.1778 17.4222 17.3 17.3C17.4222 17.1667 17.5751 17.1029 17.7587 17.1087C17.9418 17.114 18.1 17.1778 18.2333 17.3L18.95 18C19.0833 18.1222 19.1473 18.2778 19.142 18.4667C19.1362 18.6556 19.0722 18.8167 18.95 18.95C18.8167 19.0833 18.6555 19.15 18.4667 19.15C18.2778 19.15 18.1222 19.0833 18 18.95ZM17.3 10.7C17.1667 10.5778 17.1029 10.4249 17.1087 10.2413C17.114 10.0582 17.1778 9.90001 17.3 9.76667L18 9.05C18.1222 8.91667 18.2778 8.85267 18.4667 8.85801C18.6555 8.86378 18.8167 8.92778 18.95 9.05C19.0833 9.18334 19.15 9.34445 19.15 9.53334C19.15 9.72223 19.0833 9.87778 18.95 10L18.2333 10.7C18.1 10.8222 17.9444 10.8833 17.7667 10.8833C17.5889 10.8833 17.4333 10.8222 17.3 10.7ZM9.04999 18.95C8.91666 18.8167 8.84999 18.6556 8.84999 18.4667C8.84999 18.2778 8.91666 18.1222 9.04999 18L9.76666 17.3C9.89999 17.1778 10.0584 17.1167 10.242 17.1167C10.4251 17.1167 10.5778 17.1778 10.7 17.3C10.8333 17.4222 10.8973 17.5751 10.892 17.7587C10.8862 17.9418 10.8222 18.1 10.7 18.2333L9.99999 18.95C9.87777 19.0833 9.72221 19.1471 9.53332 19.1413C9.34443 19.136 9.18332 19.0722 9.04999 18.95Z" fill="#1C1B1F"/>
</g>
</svg>
